# xmcd
#
# Track frame offsets:
# 150
# 12670
# 32704
# 47143
# 65964
# 77304
# 94962
#
# Disc length: 1401 seconds
#
#
# Revision: 0
# Processed by: cddbd v1.5.1PL0 Copyright (c) Steve Scherf et al.
# Submitted via: FreeRIP 2.91 
#
DISCID=59057707
DTITLE=Tommy and the Runaway boys - Crazy Jane
DYEAR=2002
DGENRE=Blues
TTITLE0=Crazy Jane
TTITLE1=Nothing I can do
TTITLE2=Falling out
TTITLE3=Chevrolet
TTITLE4=Black Shadows
TTITLE5=Wandering Blues
TTITLE6=Holy Malony
EXTD=
EXTT0=
EXTT1=
EXTT2=
EXTT3=
EXTT4=
EXTT5=
EXTT6=
PLAYORDER=
